<mxfile host="65bd71144e">
    <diagram id="-9VYPIOkSlmDUQdBUwYq" name="Page-1">
        <mxGraphModel dx="1562" dy="525" grid="1" gridSize="10" guides="1" tooltips="1" connect="1" arrows="1" fold="1" page="1" pageScale="1" pageWidth="850" pageHeight="1100" math="0" shadow="0">
            <root>
                <mxCell id="0"/>
                <mxCell id="1" parent="0"/>
                <mxCell id="22" value="tiempo" style="text;html=1;strokeColor=none;fillColor=none;align=center;verticalAlign=middle;whiteSpace=wrap;rounded=0;fontFamily=Helvetica;fontColor=#5C068C;" parent="1" vertex="1">
                    <mxGeometry x="790" y="580" width="80" height="40" as="geometry"/>
                </mxCell>
                <mxCell id="29" value="" style="shape=flexArrow;endArrow=classic;html=1;fontColor=#5C068C;strokeColor=#5C068C;" edge="1" parent="1">
                    <mxGeometry width="50" height="50" relative="1" as="geometry">
                        <mxPoint y="560" as="sourcePoint"/>
                        <mxPoint x="840" y="560" as="targetPoint"/>
                    </mxGeometry>
                </mxCell>
                <mxCell id="30" value="0" style="text;html=1;strokeColor=none;fillColor=none;align=center;verticalAlign=middle;whiteSpace=wrap;rounded=0;fontFamily=Helvetica;fontColor=#5C068C;" vertex="1" parent="1">
                    <mxGeometry x="-20" y="580" width="40" height="40" as="geometry"/>
                </mxCell>
                <mxCell id="31" value="1" style="text;html=1;strokeColor=none;fillColor=none;align=center;verticalAlign=middle;whiteSpace=wrap;rounded=0;fontFamily=Helvetica;fontColor=#5C068C;" vertex="1" parent="1">
                    <mxGeometry x="20" y="580" width="40" height="40" as="geometry"/>
                </mxCell>
                <mxCell id="32" value="2" style="text;html=1;strokeColor=#9673a6;fillColor=none;align=center;verticalAlign=middle;whiteSpace=wrap;rounded=0;fontFamily=Helvetica;fontColor=#5C068C;" vertex="1" parent="1">
                    <mxGeometry x="60" y="580" width="40" height="40" as="geometry"/>
                </mxCell>
                <mxCell id="33" value="3" style="text;html=1;strokeColor=none;fillColor=none;align=center;verticalAlign=middle;whiteSpace=wrap;rounded=0;fontFamily=Helvetica;fontColor=#5C068C;" vertex="1" parent="1">
                    <mxGeometry x="100" y="580" width="40" height="40" as="geometry"/>
                </mxCell>
                <mxCell id="34" value="4" style="text;html=1;strokeColor=none;fillColor=none;align=center;verticalAlign=middle;whiteSpace=wrap;rounded=0;fontFamily=Helvetica;fontColor=#5C068C;" vertex="1" parent="1">
                    <mxGeometry x="140" y="580" width="40" height="40" as="geometry"/>
                </mxCell>
                <mxCell id="35" value="5" style="text;html=1;strokeColor=#9673a6;fillColor=none;align=center;verticalAlign=middle;whiteSpace=wrap;rounded=0;fontFamily=Helvetica;fontColor=#5C068C;" vertex="1" parent="1">
                    <mxGeometry x="180" y="580" width="40" height="40" as="geometry"/>
                </mxCell>
                <mxCell id="36" value="6" style="text;html=1;strokeColor=none;fillColor=none;align=center;verticalAlign=middle;whiteSpace=wrap;rounded=0;fontFamily=Helvetica;fontColor=#5C068C;" vertex="1" parent="1">
                    <mxGeometry x="220" y="580" width="40" height="40" as="geometry"/>
                </mxCell>
                <mxCell id="37" value="7" style="text;html=1;strokeColor=#9673a6;fillColor=none;align=center;verticalAlign=middle;whiteSpace=wrap;rounded=0;fontFamily=Helvetica;fontColor=#5C068C;" vertex="1" parent="1">
                    <mxGeometry x="260" y="580" width="40" height="40" as="geometry"/>
                </mxCell>
                <mxCell id="38" value="8" style="text;html=1;strokeColor=none;fillColor=none;align=center;verticalAlign=middle;whiteSpace=wrap;rounded=0;fontFamily=Helvetica;fontColor=#5C068C;" vertex="1" parent="1">
                    <mxGeometry x="300" y="580" width="40" height="40" as="geometry"/>
                </mxCell>
                <mxCell id="39" value="9" style="text;html=1;strokeColor=none;fillColor=none;align=center;verticalAlign=middle;whiteSpace=wrap;rounded=0;fontFamily=Helvetica;fontColor=#5C068C;" vertex="1" parent="1">
                    <mxGeometry x="340" y="580" width="40" height="40" as="geometry"/>
                </mxCell>
                <mxCell id="40" value="10" style="text;html=1;strokeColor=none;fillColor=none;align=center;verticalAlign=middle;whiteSpace=wrap;rounded=0;fontFamily=Helvetica;fontColor=#5C068C;" vertex="1" parent="1">
                    <mxGeometry x="380" y="580" width="40" height="40" as="geometry"/>
                </mxCell>
                <mxCell id="41" value="11" style="text;html=1;strokeColor=none;fillColor=none;align=center;verticalAlign=middle;whiteSpace=wrap;rounded=0;fontFamily=Helvetica;fontColor=#5C068C;" vertex="1" parent="1">
                    <mxGeometry x="420" y="580" width="40" height="40" as="geometry"/>
                </mxCell>
                <mxCell id="42" value="12" style="text;html=1;strokeColor=none;fillColor=none;align=center;verticalAlign=middle;whiteSpace=wrap;rounded=0;fontFamily=Helvetica;fontColor=#5C068C;" vertex="1" parent="1">
                    <mxGeometry x="460" y="580" width="40" height="40" as="geometry"/>
                </mxCell>
                <mxCell id="43" value="13" style="text;html=1;strokeColor=none;fillColor=none;align=center;verticalAlign=middle;whiteSpace=wrap;rounded=0;fontFamily=Helvetica;fontColor=#5C068C;" vertex="1" parent="1">
                    <mxGeometry x="500" y="580" width="40" height="40" as="geometry"/>
                </mxCell>
                <mxCell id="44" value="14" style="text;html=1;strokeColor=none;fillColor=none;align=center;verticalAlign=middle;whiteSpace=wrap;rounded=0;fontFamily=Helvetica;fontColor=#5C068C;" vertex="1" parent="1">
                    <mxGeometry x="540" y="580" width="40" height="40" as="geometry"/>
                </mxCell>
                <mxCell id="45" value="15" style="text;html=1;strokeColor=#9673a6;fillColor=none;align=center;verticalAlign=middle;whiteSpace=wrap;rounded=0;fontFamily=Helvetica;fontColor=#5C068C;" vertex="1" parent="1">
                    <mxGeometry x="580" y="580" width="40" height="40" as="geometry"/>
                </mxCell>
                <mxCell id="47" style="edgeStyle=none;html=1;exitX=0;exitY=0.5;exitDx=0;exitDy=0;entryX=0.5;entryY=1;entryDx=0;entryDy=0;endArrow=block;endFill=1;fontColor=#5C068C;strokeColor=#5C068C;" edge="1" parent="1" source="46" target="32">
                    <mxGeometry relative="1" as="geometry">
                        <Array as="points">
                            <mxPoint x="80" y="700"/>
                        </Array>
                    </mxGeometry>
                </mxCell>
                <mxCell id="48" style="edgeStyle=none;html=1;exitX=0.5;exitY=0;exitDx=0;exitDy=0;entryX=0.5;entryY=1;entryDx=0;entryDy=0;endArrow=block;endFill=1;fontColor=#5C068C;strokeColor=#5C068C;" edge="1" parent="1" source="46" target="35">
                    <mxGeometry relative="1" as="geometry"/>
                </mxCell>
                <mxCell id="49" style="edgeStyle=none;html=1;exitX=0.75;exitY=0;exitDx=0;exitDy=0;entryX=0.5;entryY=1;entryDx=0;entryDy=0;endArrow=block;endFill=1;fontColor=#5C068C;strokeColor=#5C068C;" edge="1" parent="1" source="46" target="37">
                    <mxGeometry relative="1" as="geometry"/>
                </mxCell>
                <mxCell id="50" style="edgeStyle=none;html=1;exitX=1;exitY=0.5;exitDx=0;exitDy=0;entryX=0.5;entryY=1;entryDx=0;entryDy=0;endArrow=block;endFill=1;fontColor=#5C068C;strokeColor=#5C068C;" edge="1" parent="1" source="46" target="45">
                    <mxGeometry relative="1" as="geometry">
                        <Array as="points">
                            <mxPoint x="600" y="700"/>
                        </Array>
                    </mxGeometry>
                </mxCell>
                <mxCell id="46" value="Instantes de llegada" style="text;html=1;strokeColor=#9673a6;fillColor=#e1d5e7;align=center;verticalAlign=middle;whiteSpace=wrap;rounded=0;fontFamily=Helvetica;fontColor=#5C068C;" vertex="1" parent="1">
                    <mxGeometry x="160" y="680" width="120" height="40" as="geometry"/>
                </mxCell>
                <mxCell id="61" style="edgeStyle=none;html=1;exitX=1;exitY=0.5;exitDx=0;exitDy=0;entryX=0.5;entryY=0;entryDx=0;entryDy=0;endArrow=block;endFill=1;fontColor=#5C068C;strokeColor=#5C068C;" edge="1" parent="1" source="51" target="60">
                    <mxGeometry relative="1" as="geometry">
                        <Array as="points">
                            <mxPoint x="440" y="420"/>
                        </Array>
                    </mxGeometry>
                </mxCell>
                <mxCell id="62" style="edgeStyle=none;html=1;exitX=0.5;exitY=1;exitDx=0;exitDy=0;entryX=0.5;entryY=0;entryDx=0;entryDy=0;endArrow=block;endFill=1;fontColor=#5C068C;strokeColor=#5C068C;" edge="1" parent="1" source="51" target="59">
                    <mxGeometry relative="1" as="geometry"/>
                </mxCell>
                <mxCell id="63" style="edgeStyle=none;html=1;exitX=0.25;exitY=1;exitDx=0;exitDy=0;entryX=0.5;entryY=0;entryDx=0;entryDy=0;endArrow=block;endFill=1;fontColor=#5C068C;strokeColor=#5C068C;" edge="1" parent="1" source="51" target="58">
                    <mxGeometry relative="1" as="geometry"/>
                </mxCell>
                <mxCell id="64" style="edgeStyle=none;html=1;exitX=0;exitY=0.5;exitDx=0;exitDy=0;entryX=0.5;entryY=0;entryDx=0;entryDy=0;endArrow=block;endFill=1;fontColor=#5C068C;strokeColor=#5C068C;" edge="1" parent="1" source="51" target="52">
                    <mxGeometry relative="1" as="geometry">
                        <Array as="points">
                            <mxPoint x="40" y="420"/>
                        </Array>
                    </mxGeometry>
                </mxCell>
                <mxCell id="51" value="Tiempos entre llegadas" style="text;html=1;strokeColor=#9673a6;fillColor=#e1d5e7;align=center;verticalAlign=middle;whiteSpace=wrap;rounded=0;fontFamily=Helvetica;fontColor=#5C068C;" vertex="1" parent="1">
                    <mxGeometry x="130" y="400" width="160" height="40" as="geometry"/>
                </mxCell>
                <mxCell id="52" value="2" style="text;html=1;strokeColor=none;fillColor=none;align=center;verticalAlign=middle;whiteSpace=wrap;rounded=0;fontFamily=Helvetica;fontColor=#5C068C;" vertex="1" parent="1">
                    <mxGeometry x="20" y="480" width="40" height="40" as="geometry"/>
                </mxCell>
                <mxCell id="54" value="" style="endArrow=block;html=1;endFill=1;fontColor=#5C068C;strokeColor=#5C068C;" edge="1" parent="1">
                    <mxGeometry width="50" height="50" relative="1" as="geometry">
                        <mxPoint y="550" as="sourcePoint"/>
                        <mxPoint x="80" y="550" as="targetPoint"/>
                        <Array as="points">
                            <mxPoint x="40" y="520"/>
                        </Array>
                    </mxGeometry>
                </mxCell>
                <mxCell id="55" value="" style="endArrow=block;html=1;endFill=1;fontColor=#5C068C;strokeColor=#5C068C;" edge="1" parent="1">
                    <mxGeometry width="50" height="50" relative="1" as="geometry">
                        <mxPoint x="80" y="550" as="sourcePoint"/>
                        <mxPoint x="200" y="550" as="targetPoint"/>
                        <Array as="points">
                            <mxPoint x="140" y="520"/>
                        </Array>
                    </mxGeometry>
                </mxCell>
                <mxCell id="56" value="" style="endArrow=block;html=1;endFill=1;fontColor=#5C068C;strokeColor=#5C068C;" edge="1" parent="1">
                    <mxGeometry width="50" height="50" relative="1" as="geometry">
                        <mxPoint x="200" y="551" as="sourcePoint"/>
                        <mxPoint x="280" y="551" as="targetPoint"/>
                        <Array as="points">
                            <mxPoint x="240" y="521"/>
                        </Array>
                    </mxGeometry>
                </mxCell>
                <mxCell id="57" value="" style="endArrow=block;html=1;endFill=1;fontColor=#5C068C;strokeColor=#5C068C;" edge="1" parent="1">
                    <mxGeometry width="50" height="50" relative="1" as="geometry">
                        <mxPoint x="280" y="551" as="sourcePoint"/>
                        <mxPoint x="600" y="550" as="targetPoint"/>
                        <Array as="points">
                            <mxPoint x="440" y="520"/>
                        </Array>
                    </mxGeometry>
                </mxCell>
                <mxCell id="58" value="3" style="text;html=1;strokeColor=none;fillColor=none;align=center;verticalAlign=middle;whiteSpace=wrap;rounded=0;fontFamily=Helvetica;fontColor=#5C068C;" vertex="1" parent="1">
                    <mxGeometry x="120" y="480" width="40" height="40" as="geometry"/>
                </mxCell>
                <mxCell id="59" value="2" style="text;html=1;strokeColor=none;fillColor=none;align=center;verticalAlign=middle;whiteSpace=wrap;rounded=0;fontFamily=Helvetica;fontColor=#5C068C;" vertex="1" parent="1">
                    <mxGeometry x="220" y="480" width="40" height="40" as="geometry"/>
                </mxCell>
                <mxCell id="60" value="8" style="text;html=1;strokeColor=none;fillColor=none;align=center;verticalAlign=middle;whiteSpace=wrap;rounded=0;fontFamily=Helvetica;fontColor=#5C068C;" vertex="1" parent="1">
                    <mxGeometry x="420" y="480" width="40" height="40" as="geometry"/>
                </mxCell>
            </root>
        </mxGraphModel>
    </diagram>
</mxfile>